<svg xmlns="http://www.w3.org/2000/svg" width="512" height="512" viewBox="0 0 512 512" fill="none">
  <defs>
    <linearGradient id="bg" x1="64" y1="52" x2="448" y2="460" gradientUnits="userSpaceOnUse">
      <stop stop-color="#7B59E6" />
      <stop offset="1" stop-color="#1E9F74" />
    </linearGradient>
    <linearGradient id="card" x1="144" y1="126" x2="370" y2="388" gradientUnits="userSpaceOnUse">
      <stop stop-color="#FFFFFF" stop-opacity="0.96" />
      <stop offset="1" stop-color="#F7F2FF" stop-opacity="0.88" />
    </linearGradient>
  </defs>
  <rect width="512" height="512" rx="124" fill="url(#bg)" />
  <circle cx="400" cy="116" r="84" fill="#FFFFFF" fill-opacity="0.10" />
  <circle cx="132" cy="396" r="96" fill="#FFFFFF" fill-opacity="0.08" />
  <rect x="122" y="104" width="268" height="304" rx="72" fill="url(#card)" />
  <path d="M188 214C188 175.34 219.34 144 258 144C296.66 144 328 175.34 328 214V228H348C362.359 228 374 239.641 374 254V340C374 354.359 362.359 366 348 366H168C153.641 366 142 354.359 142 340V254C142 239.641 153.641 228 168 228H188V214ZM220 214V228H296V214C296 193.013 278.987 176 258 176C237.013 176 220 193.013 220 214Z" fill="#6E49D8" />
  <path d="M258 270C271.255 270 282 280.745 282 294C282 307.255 271.255 318 258 318C244.745 318 234 307.255 234 294C234 280.745 244.745 270 258 270Z" fill="#8B6BE7" />
  <path d="M258 246V226" stroke="#5ABF87" stroke-width="16" stroke-linecap="round" />
  <path d="M258 226C270.15 226 280 216.15 280 204C280 191.85 270.15 182 258 182C245.85 182 236 191.85 236 204" stroke="#5ABF87" stroke-width="16" stroke-linecap="round" />
  <text x="256" y="438" text-anchor="middle" font-family="'Plus Jakarta Sans', system-ui, sans-serif" font-size="46" font-weight="800" fill="#FFFFFF">G</text>
</svg>
